HIERARCHY
ROOT Hips
{
	OFFSET 0.00000 0.00000 0.00000
	CHANNELS 6 Xposition Yposition Zposition Zrotation Yrotation Xrotation 
	JOINT LHipJoint
	{
		OFFSET 0 0 0
		CHANNELS 3 Zrotation Yrotation Xrotation
		JOINT LeftUpLeg
		{
			OFFSET 1.46561 -1.72757 0.83774
			CHANNELS 3 Zrotation Yrotation Xrotation
			JOINT LeftLeg
			{
				OFFSET 2.48915 -6.83890 0.00000
				CHANNELS 3 Zrotation Yrotation Xrotation
				JOINT LeftFoot
				{
					OFFSET 2.60555 -7.15868 0.00000
					CHANNELS 3 Zrotation Yrotation Xrotation
					JOINT LeftToeBase
					{
						OFFSET 0.19248 -0.52884 2.26738
						CHANNELS 3 Zrotation Yrotation Xrotation
						End Site
						{
							OFFSET 0.00000 -0.00000 1.17015
						}
					}
				}
			}
		}
	}
	JOINT RHipJoint
	{
		OFFSET 0 0 0
		CHANNELS 3 Zrotation Yrotation Xrotation
		JOINT RightUpLeg
		{
			OFFSET -1.46918 -1.72757 0.83774
			CHANNELS 3 Zrotation Yrotation Xrotation
			JOINT RightLeg
			{
				OFFSET -2.49034 -6.84216 0.00000
				CHANNELS 3 Zrotation Yrotation Xrotation
				JOINT RightFoot
				{
					OFFSET -2.65971 -7.30750 0.00000
					CHANNELS 3 Zrotation Yrotation Xrotation
					JOINT RightToeBase
					{
						OFFSET -0.19227 -0.52827 2.30785
						CHANNELS 3 Zrotation Yrotation Xrotation
						End Site
						{
							OFFSET -0.00000 -0.00000 1.18972
						}
					}
				}
			}
		}
	}
	JOINT LowerBack
	{
		OFFSET 0 0 0
		CHANNELS 3 Zrotation Yrotation Xrotation
		JOINT Spine
		{
			OFFSET 0.02432 2.19909 -0.28000
			CHANNELS 3 Zrotation Yrotation Xrotation
			JOINT Spine1
			{
				OFFSET 0.03714 2.21816 -0.15261
				CHANNELS 3 Zrotation Yrotation Xrotation
				JOINT Neck
				{
					OFFSET 0 0 0
					CHANNELS 3 Zrotation Yrotation Xrotation
					JOINT Neck1
					{
						OFFSET -0.01896 1.56165 0.21681
						CHANNELS 3 Zrotation Yrotation Xrotation
						JOINT Head
						{
							OFFSET 0.02744 1.56009 0.06764
							CHANNELS 3 Zrotation Yrotation Xrotation
							End Site
							{
								OFFSET 0.01212 1.60574 0.00298
							}
						}
					}
				}
				JOINT LeftShoulder
				{
					OFFSET 0 0 0
					CHANNELS 3 Zrotation Yrotation Xrotation
					JOINT LeftArm
					{
						OFFSET 3.05595 1.48048 -0.60794
						CHANNELS 3 Zrotation Yrotation Xrotation
						JOINT LeftForeArm
						{
							OFFSET 5.20607 -0.00000 -0.00000
							CHANNELS 3 Zrotation Yrotation Xrotation
							JOINT LeftHand
							{
								OFFSET 3.39961 -0.00000 0.00000
								CHANNELS 3 Zrotation Yrotation Xrotation
								JOINT LeftFingerBase
								{
									OFFSET 0 0 0
									CHANNELS 3 Zrotation Yrotation Xrotation
									JOINT LeftHandIndex1
									{
										OFFSET 0.51969 -0.00000 0.00000
										CHANNELS 3 Zrotation Yrotation Xrotation
										End Site
										{
											OFFSET 0.41899 -0.00000 0.00000
										}
									}
								}
								JOINT LThumb
								{
									OFFSET 0 0 0
									CHANNELS 3 Zrotation Yrotation Xrotation
									End Site
									{
										OFFSET 0.42539 -0.00000 0.42539
									}
								}
							}
						}
					}
				}
				JOINT RightShoulder
				{
					OFFSET 0 0 0
					CHANNELS 3 Zrotation Yrotation Xrotation
					JOINT RightArm
					{
						OFFSET -2.99052 1.57608 -0.69102
						CHANNELS 3 Zrotation Yrotation Xrotation
						JOINT RightForeArm
						{
							OFFSET -5.32214 -0.00000 0.00000
							CHANNELS 3 Zrotation Yrotation Xrotation
							JOINT RightHand
							{
								OFFSET -3.51208 -0.00000 0.00000
								CHANNELS 3 Zrotation Yrotation Xrotation
								JOINT RightFingerBase
								{
									OFFSET 0 0 0
									CHANNELS 3 Zrotation Yrotation Xrotation
									JOINT RightHandIndex1
									{
										OFFSET -0.58668 -0.00000 0.00000
										CHANNELS 3 Zrotation Yrotation Xrotation
										End Site
										{
											OFFSET -0.47300 -0.00000 0.00000
										}
									}
								}
								JOINT RThumb
								{
									OFFSET 0 0 0
									CHANNELS 3 Zrotation Yrotation Xrotation
									End Site
									{
										OFFSET -0.48022 -0.00000 0.48022
									}
								}
							}
						}
					}
				}
			}
		}
	}
}
MOTION
Frames: 14
Frame Time: .0083333
0.5649 17.6066 -13.6187 0 0 0 0 0 0 -21 0 0 0 0 0 0 0 0 0 0 0 0 0 0 21 0 0 0 0 0 0 0 0 0 0 0 0 0 0 0 0 0 0 0 0 0 0 -16 0 0 21 0 0 11 0 0 0 -8 0 0 0 0 0 0 0 0 0 0 0 0 0 0 0 0 0 0 0 0 8 0 0 0 0 0 0 0 0 0 0 0 0 0 0 0 0 0
0.5649 17.6066 -13.6187 -1.2379 -0.5077 7.2440 0.0000 0.0000 0.0000 -18.8520 3.8421 -11.8238 0.7362 5.4815 15.2870 0.4570 -1.1628 -12.4193 0.0000 -0.0256 -0.0703 0.0000 0.0000 0.0000 20.0127 0.3859 -11.6943 -1.0446 -6.4996 18.2412 -0.6366 1.5739 -14.6156 -0.5558 -4.7755 13.2694 -0.1577 -0.5281 -3.8034 1.7827 -0.7581 1.4269 1.8737 -0.4026 3.6295 -1.4125 0.4872 -13.0109 0.0229 0.9398 14.3335 0.3263 0.3779 6.4971 0.0000 -0.0000 0.0000 -89.3491 -6.5884 21.6709 7.1808 -12.2164 -0.7694 -0.0000 -0.0000 2.0834 25.7139 -3.9057 -1.8787 -7.1250 0.0000 -0.0000 -0.6934 25.6463 0.3250 0.0000 -0.0000 0.0000 88.3604 3.5384 5.9739 -11.6771 19.3186 -1.9942 0.0000 0.0000 35.0663 -21.4727 -25.2284 9.5177 7.1250 -0.0000 -0.0000 8.9809 -56.6077 -2.5699
0.5646 17.6065 -13.6127 -1.2314 -0.5163 7.2511 0.0000 0.0000 0.0000 -18.8599 3.8600 -11.8156 0.7375 5.4864 15.3012 0.4599 -1.1774 -12.4555 0.0000 -0.0066 -0.0182 0.0000 0.0000 0.0000 20.0060 0.3575 -11.6784 -1.0420 -6.4919 18.2186 -0.6370 1.6008 -14.6143 -0.5522 -4.7605 13.2267 -0.1436 -0.5234 -3.8217 1.7634 -0.7520 1.4213 1.8462 -0.3990 3.6333 -1.4212 0.4746 -12.9950 0.0431 0.9203 14.2711 0.3321 0.3701 6.4744 0.0000 -0.0000 0.0000 -89.3410 -6.5567 21.6334 7.1806 -12.2160 -0.7694 -0.0000 -0.0000 2.0879 25.7537 -3.9921 -1.9236 -7.1250 0.0000 -0.0000 -0.6649 25.5490 0.3131 0.0000 -0.0000 0.0000 88.3889 3.5154 5.9632 -11.6910 19.3396 -1.9988 0.0000 0.0000 35.0447 -21.4475 -25.2538 9.5145 7.1250 -0.0000 -0.0000 9.0190 -56.6283 -2.5855
0.5628 17.6067 -13.6071 -1.2570 -0.5061 7.2644 0.0000 0.0000 0.0000 -18.8238 3.8643 -11.8098 0.7366 5.4832 15.2920 0.4593 -1.1814 -12.4459 0.0000 -0.0085 -0.0234 0.0000 0.0000 0.0000 20.0446 0.3662 -11.6662 -1.0416 -6.4908 18.2152 -0.6385 1.5864 -14.6351 -0.5543 -4.7693 13.2518 -0.1313 -0.5330 -3.8473 1.7756 -0.7660 1.4166 1.8507 -0.4059 3.6434 -1.3974 0.4913 -12.9684 0.0127 0.9424 14.2013 0.3202 0.3800 6.4477 0.0000 -0.0000 0.0000 -89.3594 -6.5271 21.5602 7.1860 -12.2250 -0.7705 -0.0000 -0.0000 2.0798 25.7950 -4.1283 -1.9927 -7.1250 0.0000 -0.0000 -0.6364 25.3963 0.3020 0.0000 -0.0000 0.0000 88.3885 3.5122 5.9601 -11.6860 19.3321 -1.9971 0.0000 0.0000 35.0384 -21.5031 -25.2730 9.5478 7.1250 -0.0000 -0.0000 8.9687 -56.6597 -2.5777
0.5617 17.6065 -13.6014 -1.2279 -0.5134 7.2705 0.0000 0.0000 0.0000 -18.8555 3.8873 -11.7985 0.7361 5.4810 15.2858 0.4604 -1.2000 -12.4570 0.0000 -0.0083 -0.0229 0.0000 0.0000 0.0000 20.0156 0.3518 -11.6527 -1.0412 -6.4894 18.2113 -0.6404 1.6048 -14.6535 -0.5572 -4.7814 13.2862 -0.1612 -0.5315 -3.8626 1.7625 -0.7621 1.4122 1.8541 -0.4044 3.6476 -1.4221 0.4799 -12.9742 0.0333 0.9285 14.1747 0.3294 0.3738 6.4401 -0.0000 0.0000 0.0000 -89.3762 -6.5064 21.4238 7.1839 -12.2215 -0.7701 -0.0000 -0.0000 2.2129 25.7762 -4.1011 -1.9780 -7.1250 0.0000 -0.0000 -0.6500 25.4273 0.3080 -0.0000 0.0000 0.0000 88.3947 3.5107 5.9155 -11.6820 19.3261 -1.9958 0.0000 0.0000 35.0521 -21.4827 -25.2664 9.5357 7.1250 -0.0000 -0.0000 8.9874 -56.6485 -2.5807
0.5605 17.6065 -13.5959 -1.2190 -0.5151 7.2793 0.0000 0.0000 0.0000 -18.8633 3.9076 -11.7896 0.7351 5.4777 15.2761 0.4607 -1.2116 -12.4578 0.0000 -0.0072 -0.0199 0.0000 0.0000 0.0000 20.0113 0.3446 -11.6426 -1.0410 -6.4890 18.2100 -0.6420 1.6113 -14.6714 -0.5569 -4.7802 13.2827 -0.1710 -0.5330 -3.8814 1.7550 -0.7633 1.4071 1.8517 -0.4052 3.6530 -1.4220 0.4788 -12.9680 0.0345 0.9263 14.1331 0.3294 0.3732 6.4257 -0.0000 -0.0000 0.0000 -89.3835 -6.4845 21.3458 7.1787 -12.2130 -0.7690 -0.0000 -0.0000 2.2734 25.7917 -4.1531 -2.0044 -7.1250 0.0000 -0.0000 -0.6395 25.3690 0.3038 -0.0000 -0.0000 0.0000 88.4039 3.5062 5.8807 -11.6784 19.3206 -1.9946 0.0000 0.0000 35.0646 -21.4807 -25.2731 9.5370 7.1250 -0.0000 -0.0000 8.9925 -56.6551 -2.5836
0.5593 17.6065 -13.5905 -1.2085 -0.5174 7.2862 0.0000 0.0000 0.0000 -18.8734 3.9306 -11.7769 0.7335 5.4718 15.2594 0.4604 -1.2201 -12.4516 0.0000 -0.0072 -0.0197 0.0000 0.0000 0.0000 20.0050 0.3405 -11.6350 -1.0419 -6.4917 18.2181 -0.6440 1.6167 -14.6934 -0.5562 -4.7771 13.2740 -0.1827 -0.5344 -3.8986 1.7468 -0.7644 1.4030 1.8496 -0.4059 3.6585 -1.4211 0.4782 -12.9651 0.0350 0.9249 14.0966 0.3292 0.3729 6.4136 0.0000 -0.0000 0.0000 -89.3873 -6.4674 21.2828 7.1703 -12.1992 -0.7672 -0.0000 -0.0000 2.3310 25.8028 -4.2053 -2.0305 -7.1250 0.0000 -0.0000 -0.6322 25.3107 0.3013 0.0000 -0.0000 0.0000 88.4128 3.5043 5.8377 -11.6725 19.3117 -1.9927 0.0000 0.0000 35.0887 -21.4757 -25.2790 9.5367 7.1250 -0.0000 -0.0000 9.0005 -56.6600 -2.5870
0.5580 17.6066 -13.5853 -1.1958 -0.5211 7.2928 0.0000 0.0000 0.0000 -18.8863 3.9542 -11.7683 0.7326 5.4683 15.2491 0.4602 -1.2271 -12.4470 0.0000 -0.0074 -0.0202 0.0000 0.0000 0.0000 19.9963 0.3366 -11.6250 -1.0423 -6.4927 18.2208 -0.6456 1.6198 -14.7108 -0.5547 -4.7707 13.2558 -0.1960 -0.5355 -3.9147 1.7374 -0.7648 1.4003 1.8473 -0.4063 3.6649 -1.4231 0.4767 -12.9720 0.0390 0.9226 14.0674 0.3305 0.3721 6.4054 0.0000 -0.0000 0.0000 -89.3875 -6.4558 21.2427 7.1607 -12.1835 -0.7652 -0.0000 -0.0000 2.3747 25.8114 -4.2507 -2.0532 -7.1250 0.0000 -0.0000 -0.6267 25.2599 0.2994 0.0000 -0.0000 0.0000 88.4205 3.5063 5.7909 -11.6650 19.3004 -1.9902 0.0000 0.0000 35.1197 -21.4701 -25.2798 9.5343 7.1250 -0.0000 -0.0000 9.0067 -56.6596 -2.5887
0.5568 17.6067 -13.5802 -1.1844 -0.5244 7.2984 0.0000 0.0000 0.0000 -18.8980 3.9773 -11.7604 0.7318 5.4654 15.2408 0.4598 -1.2309 -12.4406 0.0000 -0.0075 -0.0207 0.0000 0.0000 0.0000 19.9888 0.3321 -11.6145 -1.0425 -6.4934 18.2228 -0.6469 1.6226 -14.7260 -0.5533 -4.7651 13.2397 -0.2084 -0.5375 -3.9298 1.7290 -0.7667 1.3986 1.8454 -0.4075 3.6718 -1.4265 0.4763 -12.9819 0.0426 0.9221 14.0405 0.3321 0.3722 6.3985 -0.0000 0.0000 0.0000 -89.3853 -6.4470 21.2235 7.1514 -12.1681 -0.7632 -0.0000 -0.0000 2.3998 25.8254 -4.3052 -2.0807 -7.1250 0.0000 -0.0000 -0.6173 25.1989 0.2957 -0.0000 0.0000 0.0000 88.4250 3.5093 5.7477 -11.6570 19.2883 -1.9875 0.0000 0.0000 35.1539 -21.4686 -25.2793 9.5334 7.1250 -0.0000 -0.0000 9.0082 -56.6588 -2.5890
0.5557 17.6069 -13.5751 -1.1731 -0.5290 7.3042 0.0000 0.0000 0.0000 -18.9099 3.9984 -11.7535 0.7312 5.4635 15.2354 0.4594 -1.2303 -12.4347 0.0000 -0.0069 -0.0188 0.0000 0.0000 0.0000 19.9810 0.3264 -11.6039 -1.0425 -6.4934 18.2228 -0.6481 1.6268 -14.7389 -0.5524 -4.7614 13.2291 -0.2204 -0.5395 -3.9451 1.7215 -0.7686 1.3985 1.8441 -0.4086 3.6805 -1.4327 0.4760 -13.0006 0.0460 0.9227 14.0178 0.3343 0.3725 6.3944 0.0000 -0.0000 0.0000 -89.3835 -6.4431 21.2148 7.1434 -12.1549 -0.7615 -0.0000 -0.0000 2.4150 25.8389 -4.3566 -2.1067 -7.1250 0.0000 -0.0000 -0.6082 25.1414 0.2922 0.0000 -0.0000 0.0000 88.4253 3.5145 5.7095 -11.6493 19.2766 -1.9850 0.0000 0.0000 35.1864 -21.4753 -25.2680 9.5327 7.1250 -0.0000 -0.0000 8.9959 -56.6486 -2.5832
0.5545 17.6071 -13.5701 -1.1625 -0.5332 7.3101 0.0000 0.0000 0.0000 -18.9211 4.0189 -11.7493 0.7312 5.4632 15.2346 0.4590 -1.2278 -12.4302 0.0000 -0.0048 -0.0133 0.0000 0.0000 0.0000 19.9741 0.3181 -11.5930 -1.0421 -6.4922 18.2195 -0.6490 1.6311 -14.7489 -0.5517 -4.7583 13.2204 -0.2326 -0.5428 -3.9593 1.7159 -0.7722 1.3985 1.8448 -0.4107 3.6887 -1.4438 0.4760 -13.0195 0.0498 0.9244 13.9951 0.3375 0.3733 6.3903 0.0000 0.0000 0.0000 -89.3838 -6.4386 21.2119 7.1396 -12.1488 -0.7607 -0.0000 -0.0000 2.4186 25.8539 -4.3958 -2.1271 -7.1250 0.0000 -0.0000 -0.5978 25.0973 0.2878 0.0000 0.0000 0.0000 88.4201 3.5201 5.6813 -11.6421 19.2657 -1.9826 0.0000 0.0000 35.2152 -21.4830 -25.2566 9.5324 7.1250 -0.0000 -0.0000 8.9827 -56.6386 -2.5772
0.5535 17.6073 -13.5652 -1.1527 -0.5367 7.3167 0.0000 0.0000 0.0000 -18.9317 4.0382 -11.7486 0.7316 5.4649 15.2395 0.4587 -1.2223 -12.4273 0.0000 -0.0018 -0.0050 0.0000 0.0000 0.0000 19.9679 0.3061 -11.5821 -1.0413 -6.4897 18.2121 -0.6499 1.6369 -14.7579 -0.5512 -4.7561 13.2142 -0.2436 -0.5466 -3.9727 1.7108 -0.7765 1.3976 1.8453 -0.4131 3.6956 -1.4539 0.4774 -13.0389 0.0531 0.9280 13.9729 0.3405 0.3748 6.3865 0.0000 0.0000 0.0000 -89.3851 -6.4350 21.2025 7.1350 -12.1413 -0.7598 -0.0000 -0.0000 2.4299 25.8694 -4.4371 -2.1484 -7.1250 0.0000 -0.0000 -0.5871 25.0508 0.2833 0.0000 0.0000 0.0000 88.4128 3.5243 5.6600 -11.6361 19.2567 -1.9806 0.0000 0.0000 35.2387 -21.4913 -25.2475 9.5332 7.1250 -0.0000 -0.0000 8.9697 -56.6311 -2.5718
0.5524 17.6075 -13.5604 -1.1439 -0.5410 7.3221 0.0000 0.0000 0.0000 -18.9415 4.0598 -11.7512 0.7327 5.4689 15.2509 0.4586 -1.2136 -12.4283 0.0000 0.0006 0.0016 0.0000 0.0000 0.0000 19.9630 0.2926 -11.5678 -1.0399 -6.4856 18.2002 -0.6507 1.6423 -14.7654 -0.5507 -4.7539 13.2079 -0.2531 -0.5502 -3.9851 1.7064 -0.7808 1.3971 1.8457 -0.4154 3.7022 -1.4657 0.4788 -13.0543 0.0554 0.9319 13.9481 0.3435 0.3765 6.3811 -0.0000 0.0000 0.0000 -89.3885 -6.4307 21.1909 7.1328 -12.1376 -0.7593 -0.0000 -0.0000 2.4401 25.8797 -4.4630 -2.1619 -7.1250 0.0000 -0.0000 -0.5801 25.0216 0.2803 -0.0000 0.0000 0.0000 88.4040 3.5285 5.6385 -11.6305 19.2482 -1.9788 0.0000 0.0000 35.2632 -21.4998 -25.2410 9.5351 7.1250 -0.0000 -0.0000 8.9577 -56.6262 -2.5673
0.5512 17.6078 -13.5557 -1.1391 -0.5449 7.3274 0.0000 0.0000 0.0000 -18.9468 4.0820 -11.7583 0.7344 5.4750 15.2684 0.4586 -1.2004 -12.4318 0.0000 0.0035 0.0096 0.0000 0.0000 0.0000 19.9632 0.2834 -11.5490 -1.0381 -6.4800 18.1838 -0.6514 1.6415 -14.7740 -0.5500 -4.7508 13.1990 -0.2587 -0.5531 -3.9960 1.7027 -0.7843 1.3964 1.8447 -0.4172 3.7079 -1.4764 0.4797 -13.0709 0.0582 0.9350 13.9239 0.3464 0.3777 6.3761 0.0000 0.0000 0.0000 -89.3920 -6.4272 21.1807 7.1315 -12.1354 -0.7590 -0.0000 -0.0000 2.4491 25.8874 -4.4779 -2.1699 -7.1250 0.0000 -0.0000 -0.5745 25.0048 0.2778 0.0000 0.0000 0.0000 88.3953 3.5318 5.6204 -11.6263 19.2418 -1.9774 0.0000 0.0000 35.2808 -21.5068 -25.2343 9.5361 7.1250 -0.0000 -0.0000 8.9474 -56.6209 -2.5631
